# xmcd
#
# Track frame offsets: 
#        150
#        3978
#        22684
#        37313
#        62681
#        72681
#        87179
#        96723
#        118390
#        130904
#        149511
#        173552
#        196543
#        219852
#        225753
#        240020
#        254571
#        256637
#        282047
#        293989
#        314220
#        321925
#
# Disc length: 4497 seconds
#
# Revision: 2
# Processed by: cddbd v1.5.2PL0 Copyright (c) Steve Scherf et al.
# Submitted via: ExactAudioCopy v0.99pb4
#
DISCID=3c118f16
DTITLE=Art Tatum - Live Performances 1934-1956 [CD6]
DYEAR=2008
DGENRE=Jazz
TTITLE0=Caravan
TTITLE1=If
TTITLE2=Soft Winds
TTITLE3=Memories Of You
TTITLE4=Yesterdays
TTITLE5=Someone To Watch Over Me
TTITLE6=Flying Home
TTITLE7=Tenderly
TTITLE8=Tea For Two
TTITLE9=Sweet Lorraine
TTITLE10=Body And Soul
TTITLE11=Sweet Lorraine
TTITLE12=Memories Of You
TTITLE13=Air Mail Special
TTITLE14=Tea For Two
TTITLE15=Dialogue
TTITLE16=Someone To Watch Over Me
TTITLE17=Sweet Lorraine
TTITLE18=Fine And Dandy
TTITLE19=Someone To Watch Over Me
TTITLE20=This Can't Be Love
TTITLE21=My Heart Stood Still
EXTD=YEAR: 1955
EXTT0=
EXTT1=
EXTT2=
EXTT3=
EXTT4=
EXTT5=
EXTT6=
EXTT7=
EXTT8=
EXTT9=
EXTT10=
EXTT11=
EXTT12=
EXTT13=
EXTT14=
EXTT15=
EXTT16=
EXTT17=
EXTT18=
EXTT19=
EXTT20=
EXTT21=
PLAYORDER=
